# xmcd
#
# Track frame offsets: 
#        150
#        20831
#        36951
#        55199
#        70939
#        87403
#        107863
#        120646
#        146840
#        161831
#
# Disc length: 2497 seconds
#
# Revision: 1
# Processed by: cddbd v1.5.2PL0 Copyright (c) Steve Scherf et al.
# Submitted via: ExactAudioCopyFreeDBPlugin 1.0
#
DISCID=9309bf0a
DTITLE=Liz Green - O, Devotion!
DYEAR=2011
DGENRE=Blues
TTITLE0=Hey Joe
TTITLE1=Midnight Blues
TTITLE2=Displacement Song
TTITLE3=Luis
TTITLE4=Bad Medicine
TTITLE5=French Singer
TTITLE6=Rag and Bone
TTITLE7=The Quiet
TTITLE8=Ostrich Song
TTITLE9=Gallows
EXTD=YEAR: 2011
EXTT0=
EXTT1=
EXTT2=
EXTT3=
EXTT4=
EXTT5=
EXTT6=
EXTT7=
EXTT8=
EXTT9=
PLAYORDER=
